<?xml version="1.0" encoding="UTF-8" standalone="no"?>
<svg xmlns:dc="http://purl.org/dc/elements/1.1/" xmlns:cc="http://creativecommons.org/ns#" xmlns:rdf="http://www.w3.org/1999/02/22-rdf-syntax-ns#" xmlns:svg="http://www.w3.org/2000/svg" xmlns="http://www.w3.org/2000/svg" width="765" height="990" preserveAspectRatio="none" viewBox="0 0 765 990" id="svg4222" version="1.1">
  <title id="title4210">Wood Border 2</title>
  <defs id="defs4224">
    <filter height="1" y="0" width="1" x="0" id="filter4172" style="color-interpolation-filters:sRGB">
      <feTurbulence seed="25" baseFrequency="0.002 0.182" numOctaves="1" type="turbulence" radius="0.7" result="result1" id="feTurbulence4174"/>
      <feComposite in="SourceGraphic" operator="in" in2="result1" id="feComposite4176"/>
      <feColorMatrix values="1 0 0 0 0.1 0 1 0 0 0.1 0 0 1 0 0.1 0 0 0 0.5 0 " result="result5" id="feColorMatrix4178"/>
      <feColorMatrix result="result8" values="2 0 0 0 0 0 2 0 0 0 0 0 2 0 0 0 0 0 1 0 " id="feColorMatrix4180"/>
      <feMerge result="result6" id="feMerge4182">
        <feMergeNode in="result8" id="feMergeNode4184"/>
      </feMerge>
      <feTurbulence radius="0.7" type="turbulence" numOctaves="1" baseFrequency="0.002 0.182" seed="0" result="result9" id="feTurbulence4186"/>
      <feComposite operator="in" in="SourceGraphic" in2="result9" id="feComposite4188"/>
      <feColorMatrix result="result5" values="0.4 0 0 0 0 0 0.4 0 0 0 0 0 0.4 0 0 0 0 0 0.5 0 " id="feColorMatrix4190"/>
      <feMerge result="result9" id="feMerge4192">
        <feMergeNode in="result5" id="feMergeNode4194"/>
        <feMergeNode in="result6" id="feMergeNode4196"/>
      </feMerge>
      <feTurbulence baseFrequency="0.0032520325203252037 0.034146341463414637" type="fractalNoise" numOctaves="10" result="result11" id="feTurbulence4198"/>
      <feDisplacementMap in="result9" result="result10" scale="20.588235" in2="result11" xChannelSelector="A" yChannelSelector="A" id="feDisplacementMap4200"/>
      <feMerge result="result7" id="feMerge4202">
        <feMergeNode in="SourceGraphic" id="feMergeNode4204"/>
        <feMergeNode in="result10" id="feMergeNode4206"/>
      </feMerge>
      <feComposite in2="SourceGraphic" in="result10" operator="arithmetic" k3="1" k2="0.53857351" k1="0" k4="0" id="feComposite4208"/>
    </filter>
  </defs>
  <metadata id="metadata4227">
    <rdf:RDF>
      <cc:Work rdf:about="">
        <dc:format>image/svg+xml</dc:format>
        <dc:type rdf:resource="http://purl.org/dc/dcmitype/StillImage"/>
        <dc:title>Wood Border 2</dc:title>
        <dc:description>decorative wooden border/frame</dc:description>
        <dc:creator>
          <cc:Agent>
            <dc:title>Arvin61r58</dc:title>
          </cc:Agent>
        </dc:creator>
        <dc:publisher>
          <cc:Agent>
            <dc:title>Openclipart.org</dc:title>
          </cc:Agent>
        </dc:publisher>
        <dc:identifier>https://openclipart.org/</dc:identifier>
        <dc:source>https://openclipart.org/user-detail/Arvin61r58</dc:source>
        <dc:subject>
          <rdf:Bag>
            <rdf:li>frame</rdf:li>
            <rdf:li>border</rdf:li>
            <rdf:li>wood</rdf:li>
            <rdf:li>maple</rdf:li>
            <rdf:li>wood grain</rdf:li>
            <rdf:li>WoodGrain</rdf:li>
          </rdf:Bag>
        </dc:subject>
        <cc:license rdf:resource="http://creativecommons.org/publicdomain/zero/1.0/"/>
      </cc:Work>
      <cc:License rdf:about="http://creativecommons.org/publicdomain/zero/1.0/">
        <cc:permits rdf:resource="http://creativecommons.org/ns#Reproduction"/>
        <cc:permits rdf:resource="http://creativecommons.org/ns#Distribution"/>
        <cc:permits rdf:resource="http://creativecommons.org/ns#DerivativeWorks"/>
      </cc:License>
    </rdf:RDF>
  </metadata>
  <path style="color:#000000;font-style:normal;font-variant:normal;font-weight:normal;font-stretch:normal;font-size:medium;line-height:normal;font-family:sans-serif;text-indent:0;text-align:start;text-decoration:none;text-decoration-line:none;text-decoration-style:solid;text-decoration-color:#000000;letter-spacing:normal;word-spacing:normal;text-transform:none;direction:ltr;block-progression:tb;writing-mode:lr-tb;baseline-shift:baseline;text-anchor:start;white-space:normal;clip-rule:nonzero;display:inline;overflow:visible;visibility:visible;opacity:1;isolation:auto;mix-blend-mode:normal;color-interpolation:sRGB;color-interpolation-filters:linearRGB;solid-color:#000000;solid-opacity:1;fill:#d1b898;fill-opacity:1;fill-rule:nonzero;stroke:none;stroke-width:10.30000019;stroke-linecap:square;stroke-linejoin:miter;stroke-miterlimit:4;stroke-dasharray:none;stroke-dashoffset:0;stroke-opacity:1;filter:url(#filter4172);color-rendering:auto;image-rendering:auto;shape-rendering:auto;text-rendering:auto;enable-background:accumulate" d="m 31.130858,22.499967 c -2.70856,0.996278 -5.055112,3.534111 -7.576171,8.052734 -0.443411,0.79476 -0.790552,1.838148 -1.044922,2.980469 l 0,8.320312 c 0.18883,0.51721 0.428555,0.90804 0.728515,1.09375 0.69696,0.43152 1.265625,3.28813 1.265625,6.34766 0,3.05953 0.570618,5.91419 1.267578,6.3457 0.803488,0.49747 1.218237,26.70848 1.279297,54.736328 l -0.201172,0 0,5.15821 0,766.25195 0,5.16016 0.173829,0 c -0.115329,25.06417 -0.5196,46.95871 -1.251954,47.41211 -0.69696,0.43158 -1.267578,3.28612 -1.267578,6.34572 0,3.0595 -0.568665,5.9161 -1.265625,6.3476 -0.29996,0.1857 -0.539685,0.5766 -0.728515,1.0938 l 0,8.3203 c 0.25437,1.1423 0.601511,2.1857 1.044922,2.9805 2.521059,4.5185 4.867611,7.0564 7.576171,8.0527 l 6.560547,0 c 3.76748,-0.9302 7.819941,-3.0359 9.644532,-5.2383 0.85564,-1.0328 2.234753,-1.8789 3.064453,-1.8789 4.127808,0 17.189453,-20.7359 17.189453,-27.28905 0,-2.93595 -6.186189,-9.26087 -11.800782,-12.06641 -2.866747,-1.43238 -4.052603,-1.4733 -6.070312,-0.21093 -3.166771,1.98119 -4.939453,0.92032 -4.939453,-2.95899 0,-1.66312 -0.570618,-3.37707 -1.267578,-3.80859 -0.760372,-0.47076 -1.164824,-16.39661 -1.25586,-34.04883 l 0.404297,0 -0.002,-1.32617 -0.5,-762.02539 0.06055,0 c 0.008,-20.168488 0.436349,-40.166918 1.292969,-40.697268 0.69696,-0.43153 1.267578,-2.14548 1.267578,-3.8086 0,-3.87931 1.772682,-4.94017 4.939453,-2.95898 2.017709,1.26237 3.203565,1.22144 6.070312,-0.21094 5.614593,-2.80554 11.800782,-9.13045 11.800782,-12.06641 0,-6.5532 -13.061645,-27.289057 -17.189453,-27.289057 -0.8297,0 -2.208813,-0.84608 -3.064453,-1.878907 -1.824547,-2.202442 -5.877008,-4.308026 -9.644488,-5.238281 l -6.560547,0 z m 32.761719,0 c -0.1079,0.254714 -0.105469,0.664321 -0.105469,1.207031 0,0.939099 -1.139283,2.742116 -2.533203,4.00586 -1.39392,1.263743 -2.535156,3.263369 -2.535156,4.443359 0,1.179992 1.141236,3.177623 2.535156,4.441406 1.39392,1.263679 2.533203,3.068719 2.533203,4.007809 0,2.00293 7.041902,2.37479 8.238282,0.43555 0.49459,-0.80172 16.72449,-1.25952 44.48438,-1.26562 l 0,-0.0332 531.98046,0 0,0.0332 c 27.75988,0.006 43.99174,0.4639 44.48633,1.26562 1.19638,1.93924 8.23828,1.56738 8.23828,-0.43555 0,-0.93909 1.13733,-2.74413 2.53125,-4.007809 1.39392,-1.263783 2.53711,-3.261414 2.53711,-4.441406 0,-1.17999 -1.14319,-3.179616 -2.53711,-4.443359 -1.39392,-1.263744 -2.53125,-3.066761 -2.53125,-4.00586 0,-0.54271 0.002,-0.952318 -0.10546,-1.207031 l -1.53907,0 c -1.16187,0.452136 -3.12119,1.478643 -6.59375,3.308594 l -7.22656,3.808594 -14.70898,0 0,-0.04102 -5.125,0 -563.25586,0 -5.125005,0 0,0.04102 -18.283203,0 -7.226562,-3.808594 C 68.55283,23.97861 66.59351,22.952103 65.43164,22.499967 l -1.539063,0 z m 663.416013,0 c -3.76748,0.930255 -7.81798,3.035839 -9.64257,5.238281 -0.85564,1.032827 -2.23476,1.878907 -3.06446,1.878907 -4.12781,0 -17.1914,20.735857 -17.1914,27.289057 0,2.93595 6.18814,9.26087 11.80273,12.06641 2.86675,1.43237 4.0526,1.47331 6.07031,0.21094 3.16677,-1.98119 4.93946,-0.92033 4.93946,2.95898 0,1.66311 0.57061,3.37707 1.26757,3.8086 0.85662,0.53034 1.28497,20.52878 1.29297,40.697268 l 0.15235,0 0.49609,756.70312 -0.64844,0 c -0.008,20.16848 -0.43635,40.16693 -1.29297,40.69727 -0.69696,0.43152 -1.26757,2.14548 -1.26757,3.80859 0,3.87931 -1.77269,4.94018 -4.93946,2.95899 -2.01771,-1.26237 -3.20356,-1.22144 -6.07031,0.21093 -5.61459,2.80554 -11.80273,9.13046 -11.80273,12.06641 0,6.55315 13.06359,27.28905 17.1914,27.28905 0.8297,0 2.20882,0.8461 3.06446,1.8789 1.82459,2.2024 5.87509,4.3081 9.64257,5.2383 l 6.5625,0 c 2.70856,-0.9963 5.05512,-3.5342 7.57618,-8.0527 0.44341,-0.7948 0.78859,-1.8382 1.04296,-2.9805 l 0,-8.3203 c -0.18883,-0.5172 -0.4266,-0.9081 -0.72656,-1.0938 -0.69696,-0.4315 -1.26758,-3.2881 -1.26758,-6.3476 0,-3.0596 -0.57061,-5.91414 -1.26757,-6.34572 -0.73235,-0.4534 -1.13484,-22.34794 -1.25,-47.41211 l 0.1621,0 0,-5.16016 0,-766.25195 0,-5.15821 -0.18945,0 c 0.0608,-28.027848 0.47387,-54.238858 1.27735,-54.736328 0.69696,-0.43152 1.26757,-3.28617 1.26757,-6.3457 0,-3.05953 0.57062,-5.91614 1.26758,-6.34766 0.29996,-0.18571 0.53773,-0.57654 0.72656,-1.09375 l 0,-8.320312 c -0.25437,-1.142321 -0.59955,-2.185709 -1.04296,-2.980469 -2.52106,-4.518623 -4.86762,-7.056456 -7.57618,-8.052734 l -6.5625,0 z M 34.152343,27.349576 c 3.42029,-0.135795 12.152605,8.644521 15.828125,16.052736 1.60774,3.24051 3.946605,7.40654 5.197265,9.25976 1.250649,1.85332 2.273438,4.2824 2.273438,5.39649 0,1.11408 -0.568663,2.02539 -1.265625,2.02539 -0.69696,0 -1.267578,-0.91131 -1.267578,-2.02539 0,-1.11409 -1.040399,-3.54317 -2.310547,-5.39649 -1.27016,-1.85323 -3.302258,-5.53309 -4.517578,-8.17968 -2.85644,-6.22052 -9.242731,-13.475308 -13.369141,-15.187503 -2.795851,-1.160109 -2.918013,-1.425368 -0.882812,-1.904297 0.0989,-0.02324 0.204123,-0.03661 0.314453,-0.04102 z m 696.695317,0 c 0.11033,0.004 0.2175,0.01779 0.3164,0.04102 2.0352,0.478929 1.91304,0.744178 -0.88281,1.904297 -4.12641,1.712195 -10.51464,8.966979 -13.37109,15.187499 -1.21532,2.6466 -3.24547,6.32645 -4.51563,8.17969 -1.27015,1.85331 -2.31055,4.2824 -2.31055,5.39648 0,1.11409 -0.57061,2.02539 -1.26757,2.02539 -0.69696,0 -1.26563,-0.9113 -1.26563,-2.02539 0,-1.11408 1.02084,-3.54317 2.27149,-5.39648 1.25066,-1.85323 3.59147,-6.01926 5.19921,-9.25977 3.67553,-7.408211 12.40589,-16.188527 15.82618,-16.052732 z M 30.541015,29.847623 c 0.19306,-0.07762 0.437813,0.610367 0.902343,1.992188 1.01347,3.014869 2.686369,3.757408 3.429688,1.523437 0.243631,-0.732221 2.108821,0.410409 4.144531,2.539063 l 3.701172,3.871091 -4.988281,-0.0488 c -5.90505,-0.0571 -8.523353,-2.50843 -7.783203,-7.285153 0.2592,-1.672812 0.40069,-2.514174 0.59375,-2.591797 z m 703.917965,0 c 0.19306,0.07762 0.33455,0.918985 0.59375,2.591797 0.74015,4.776723 -1.8762,7.228062 -7.78125,7.285152 l -4.98828,0.0488 3.70118,-3.87109 c 2.0357,-2.128654 3.9009,-3.271284 4.14453,-2.539063 0.74332,2.233971 2.41621,1.491432 3.42968,-1.523437 0.46453,-1.381821 0.70733,-2.069811 0.90039,-1.992188 z m -622.7832,12.328129 0,0.16015 c -23.706881,0.062 -37.924065,0.49731 -38.384765,1.24414 -0.43075,0.69821 -2.17372,1.26953 -3.875,1.26953 -1.70127,0 -3.09375,0.57133 -3.09375,1.26954 0,0.6982 1.676812,1.26953 3.726562,1.26953 2.04976,0 4.079026,-0.57133 4.509766,-1.26953 0.49292,-0.79907 15.878427,-1.26107 41.951177,-1.26758 l 0,-0.0273 531.98046,0 0,0.0273 c 26.07274,0.007 41.4602,0.46851 41.95313,1.26758 0.43074,0.6982 2.46001,1.26953 4.50976,1.26953 2.04976,0 3.72461,-0.57133 3.72461,-1.26953 0,-0.69821 -1.39248,-1.26954 -3.09375,-1.26954 -1.70128,0 -3.44425,-0.57132 -3.875,-1.26953 -0.45385,-0.73574 -14.32093,-1.1658 -37.38476,-1.23828 l 0,-0.16601 -1.32422,0 -540,0 -1.32422,0 z m -61.21289,13.24414 c 0.22025,0.016 0.421582,0.078 0.601562,0.18945 0.899659,0.55694 0.27801,1.75521 -1.730469,3.33789 -3.483541,2.74511 -7.08789,9.19475 -7.08789,12.68164 0,1.24793 -0.570618,2.62121 -1.267578,3.05274 -0.763968,0.473 -1.168908,17.02606 -1.257813,35.320308 l -0.216797,0 0.002,1.32617 0.5,762.02344 -0.322265,0 c 0.0078,20.80311 0.437602,41.436 1.294922,41.9668 0.69696,0.43153 1.267578,1.8048 1.267578,3.05273 0,3.48689 3.604349,9.93649 7.08789,12.68164 2.008479,1.58261 2.630128,2.78093 1.730469,3.33789 -2.87969,1.78292 -11.353515,-9.22566 -11.353515,-14.75 0,-1.24792 -0.570619,-2.62119 -1.267579,-3.05273 -0.848,-0.52501 -1.275336,-21.32411 -1.292968,-42.50586 l 0,-758.16406 c 0.01763,-21.181758 0.444968,-41.980848 1.292968,-42.505868 0.69696,-0.43153 1.267579,-1.80479 1.267579,-3.05273 0,-5.17907 7.448199,-15.17888 10.751953,-14.93945 z m 664.07617,0 c 3.30376,-0.23943 10.75196,9.76038 10.75196,14.93945 0,1.24794 0.57061,2.62121 1.26757,3.05273 0.81899,0.50706 1.23692,19.97057 1.28125,40.378918 l 0,1.74414 0,760.67382 c -0.0443,20.40834 -0.46226,39.87186 -1.28125,40.37891 -0.69696,0.43153 -1.26757,1.80481 -1.26757,3.05273 0,5.52433 -8.47383,16.53292 -11.35352,14.75 -0.89966,-0.55696 -0.27996,-1.75528 1.72852,-3.33789 3.48354,-2.74515 7.08984,-9.19475 7.08984,-12.68164 0,-1.24794 0.56866,-2.6212 1.26562,-3.05273 0.76394,-0.47298 1.17039,-17.02489 1.25977,-35.31836 l 0.80469,0 -0.002,-1.32617 -0.5039,-767.34766 0,-1.32617 -0.29883,0 c -0.0894,-18.293468 -0.49583,-34.845388 -1.25977,-35.318358 -0.69696,-0.43153 -1.26562,-1.8048 -1.26562,-3.05274 0,-3.48689 -3.6063,-9.93654 -7.08984,-12.68164 -2.00848,-1.58268 -2.62818,-2.78095 -1.72852,-3.33789 0.17998,-0.11143 0.38131,-0.17349 0.60156,-0.18945 z m -662.626952,5.0625 c 0.454359,0.034 0.470703,1.00873 0.470703,3.21289 0,4.56157 0.0996,4.48188 -2.839843,2.24609 -2.080921,-1.58278 -2.061431,-1.80539 0.318359,-3.96289 1.079799,-0.97896 1.69739,-1.52248 2.050781,-1.49609 z m 661.177732,0 c 0.35339,-0.0263 0.97099,0.51713 2.05078,1.49609 2.37979,2.1575 2.39928,2.38011 0.31836,3.96289 -2.93943,2.23579 -2.83984,2.31548 -2.83984,-2.24609 0,-2.20416 0.0163,-3.17894 0.4707,-3.21289 z M 51.917968,922.57028 c 0.495583,0.071 0.464843,1.1685 0.464843,3.73438 0,2.20411 -0.01634,3.17884 -0.470703,3.21289 -0.353391,0.0263 -0.970982,-0.51716 -2.050781,-1.4961 -2.37979,-2.15748 -2.39928,-2.38011 -0.318359,-3.96289 1.286007,-0.97816 1.989547,-1.54355 2.375,-1.48828 z m 661.164062,0 c 0.38545,-0.0553 1.09095,0.51012 2.37695,1.48828 2.08092,1.58278 2.06143,1.80541 -0.31836,3.96289 -1.07979,0.97894 -1.69739,1.52214 -2.05078,1.4961 -0.4544,-0.034 -0.4707,-1.00878 -0.4707,-3.21289 0,-2.56588 -0.0327,-3.66334 0.46289,-3.73438 z m -656.896484,7.34375 0,0.002 c 0.696962,0 1.265625,0.91132 1.265625,2.02539 0,1.11406 -1.022789,3.54314 -2.273438,5.39648 -1.25066,1.85327 -3.589525,6.01927 -5.197265,9.25977 -3.67552,7.4082 -12.407835,16.1885 -15.828125,16.0527 -0.11033,0 -0.215553,-0.018 -0.314453,-0.041 -2.035201,-0.4788 -1.913039,-0.7441 0.882812,-1.9043 4.12641,-1.7121 10.512701,-8.967 13.369141,-15.1875 1.21532,-2.6466 3.247418,-6.3264 4.517578,-8.17966 1.270148,-1.85334 2.310547,-4.28242 2.310547,-5.39648 0,-1.11407 0.570618,-2.02735 1.267578,-2.02735 z m 652.630864,0.002 c 0.69696,0 1.26757,0.91132 1.26757,2.02539 0,1.11406 1.0404,3.54314 2.31055,5.39648 1.27016,1.85327 3.30031,5.53307 4.51563,8.17967 2.85645,6.2205 9.24468,13.4754 13.37109,15.1875 2.79585,1.1602 2.91801,1.4254 0.88281,1.9043 -0.0989,0.023 -0.20607,0.041 -0.3164,0.041 -3.42029,0.1357 -12.15065,-8.6445 -15.82618,-16.0527 -1.60774,-3.2405 -3.94855,-7.4065 -5.19921,-9.25978 -1.25065,-1.85334 -2.27149,-4.28242 -2.27149,-5.39648 0,-1.11407 0.56867,-2.02539 1.26563,-2.02539 z M 70.048827,942.61127 c -2.04975,0 -3.726562,0.5714 -3.726562,1.2696 0,0.6982 1.39248,1.2695 3.09375,1.2695 1.70128,0 3.44425,0.5713 3.875,1.2695 0.49378,0.8004 16.302475,1.2576 43.218755,1.2676 l 0,-0.062 531.98046,0 0,0.062 c 26.91627,-0.01 42.72497,-0.4671 43.21875,-1.2676 0.43075,-0.6982 2.17372,-1.2695 3.875,-1.2695 1.70127,0 3.09375,-0.5713 3.09375,-1.2695 0,-0.6982 -1.67485,-1.2696 -3.72461,-1.2696 -2.04975,0 -4.07902,0.5714 -4.50976,1.2696 -0.45182,0.7324 -13.88198,1.1612 -36.11914,1.2382 l 0,-0.1425 -1.32422,0 -540,0 -1.32422,0 0,0.1484 c -22.877016,-0.064 -36.658333,-0.5003 -37.117187,-1.2441 -0.43074,-0.6982 -2.460006,-1.2696 -4.509766,-1.2696 z m -2.591797,5.0879 c -1.910023,0.1011 -3.669922,0.6939 -3.669922,1.6953 0,0.9391 -1.139283,2.7441 -2.533203,4.0078 -1.39392,1.2637 -2.535156,3.2615 -2.535156,4.4415 0,1.1799 1.141236,3.1795 2.535156,4.4433 1.39392,1.2637 2.533203,3.0667 2.533203,4.0059 0,0.5426 -0.0024,0.9523 0.105469,1.207 l 1.539063,0 c 1.16187,-0.4521 3.12119,-1.4786 6.59375,-3.3086 l 7.226562,-3.8086 18.283203,0 0,0.041 5.125005,0 563.25586,0 5.125,0 0,-0.041 14.70898,0 7.22656,3.8086 c 3.47256,1.83 5.43188,2.8565 6.59375,3.3086 l 1.53907,0 c 0.10744,-0.2547 0.10546,-0.6644 0.10546,-1.207 0,-0.9392 1.13733,-2.7422 2.53125,-4.0059 1.39392,-1.2638 2.53711,-3.2634 2.53711,-4.4433 0,-1.18 -1.14319,-3.1778 -2.53711,-4.4415 -1.39392,-1.2637 -2.53125,-3.0687 -2.53125,-4.0078 0,-2.0029 -7.0419,-2.3748 -8.23828,-0.4355 -0.49459,0.8018 -16.72645,1.2556 -44.48633,1.2656 l 0,0.033 -531.98046,0 0,-0.033 c -27.75989,-0.01 -43.98979,-0.4638 -44.48438,-1.2656 -0.59819,-0.9696 -2.658337,-1.3609 -4.56836,-1.2598 z m -24.738281,2.5274 -3.701172,3.8711 c -2.03571,2.1286 -3.9009,3.2713 -4.144531,2.539 -0.743319,-2.2339 -2.416218,-1.4914 -3.429688,1.5235 -0.46453,1.3818 -0.709283,2.0693 -0.902343,1.9921 -0.19306,-0.078 -0.33455,-0.919 -0.59375,-2.5917 -0.74015,-4.7768 1.878153,-7.2281 7.783203,-7.2852 l 4.988281,-0.049 z m 679.564451,0 4.98828,0.049 c 5.90505,0.057 8.5214,2.5085 7.78125,7.2851 -0.2592,1.6729 -0.40069,2.5137 -0.59375,2.5918 -0.19306,0.078 -0.43586,-0.6103 -0.90039,-1.9922 -1.01347,-3.0147 -2.68636,-3.7574 -3.42968,-1.5234 -0.24363,0.7322 -2.10883,-0.4104 -4.14453,-2.5391 l -3.70118,-3.8711 z" id="path4964" transform="matrix(1.0000271,0,0,1,-0.01036325,3.15e-5)"/>
</svg>